<?xml version="1.0" standalone="no"?>
<!DOCTYPE svg PUBLIC "-//W3C//DTD SVG 20010904//EN"
 "http://www.w3.org/TR/2001/REC-SVG-20010904/DTD/svg10.dtd">
<svg version="1.0" xmlns="http://www.w3.org/2000/svg"
 width="60.000000pt" height="60.000000pt" viewBox="0 0 60.000000 60.000000"
 preserveAspectRatio="xMidYMid meet">

<g transform="translate(0.000000,60.000000) scale(0.100000,-0.100000)"
fill="#000000" stroke="none">
<path d="M233 540 c-70 -31 -107 -114 -83 -185 6 -20 37 -62 67 -95 30 -33 58
-72 62 -87 10 -36 32 -36 42 0 4 15 32 54 62 87 82 88 95 150 47 228 -22 35
-88 72 -130 72 -14 0 -44 -9 -67 -20z m97 -115 c26 -32 -13 -81 -47 -59 -23
14 -28 41 -13 59 16 19 44 19 60 0z"/>
<path d="M99 233 c-47 -122 -58 -156 -53 -164 7 -12 501 -12 508 0 3 5 -9 49
-28 98 -28 75 -37 88 -58 91 -14 2 -31 -5 -43 -18 -18 -20 -18 -20 13 -20 28
0 32 -5 51 -55 12 -31 21 -58 21 -60 0 -3 -94 -5 -210 -5 -116 0 -210 2 -210
5 0 2 9 29 21 60 19 50 23 55 51 55 30 0 31 0 13 20 -27 30 -63 26 -76 -7z"/>
</g>
</svg>
