<?xml version="1.0" standalone="no"?>
<!DOCTYPE svg PUBLIC "-//W3C//DTD SVG 20010904//EN"
 "http://www.w3.org/TR/2001/REC-SVG-20010904/DTD/svg10.dtd">
<svg version="1.0" xmlns="http://www.w3.org/2000/svg"
 width="60.000000pt" height="60.000000pt" viewBox="0 0 60.000000 60.000000"
 preserveAspectRatio="xMidYMid meet">

<g transform="translate(0.000000,60.000000) scale(0.100000,-0.100000)"
fill="#000000" stroke="none">
<path d="M242 545 c-21 -9 -38 -27 -47 -48 -16 -40 -14 -149 3 -155 7 -2 12
-9 12 -17 0 -7 7 -18 15 -25 8 -7 15 -25 15 -41 0 -33 -24 -52 -86 -68 -46
-12 -79 -43 -89 -84 l-7 -27 113 0 114 0 -3 49 c-5 62 18 112 69 153 22 17 39
35 39 40 0 5 6 16 14 23 18 18 16 136 -3 159 -17 20 -87 56 -109 56 -9 -1 -32
-7 -50 -15z"/>
<path d="M401 263 c-124 -65 -93 -242 45 -259 73 -9 141 46 150 122 13 104
-103 186 -195 137z m77 -76 c2 -20 10 -27 30 -29 16 -2 27 -9 27 -18 0 -9 -11
-16 -27 -18 -21 -3 -27 -9 -30 -30 -2 -16 -9 -27 -18 -27 -9 0 -16 11 -18 27
-3 21 -9 27 -30 30 -36 4 -36 32 1 36 20 3 27 9 27 26 0 44 33 47 38 3z"/>
</g>
</svg>
