<?xml version="1.0" standalone="no"?>
<!DOCTYPE svg PUBLIC "-//W3C//DTD SVG 20010904//EN"
 "http://www.w3.org/TR/2001/REC-SVG-20010904/DTD/svg10.dtd">
<svg version="1.0" xmlns="http://www.w3.org/2000/svg"
 width="600.000000pt" height="600.000000pt" viewBox="0 0 600.000000 600.000000"
 preserveAspectRatio="xMidYMid meet">

<g transform="translate(0.000000,600.000000) scale(0.100000,-0.100000)"
fill="#000000" stroke="none">
<path d="M2780 5904 c-19 -2 -78 -9 -130 -15 -603 -67 -1200 -348 -1650 -776
-487 -462 -786 -1044 -887 -1728 -25 -170 -25 -600 0 -770 93 -630 353 -1172
774 -1615 462 -487 1044 -786 1728 -887 170 -25 600 -25 770 0 630 93 1172
353 1615 774 487 462 786 1044 887 1728 25 170 25 600 0 770 -101 684 -400
1266 -887 1728 -437 416 -971 674 -1585 768 -124 20 -538 34 -635 23z m1898
-3641 l-253 -253 -705 705 c-388 388 -710 705 -715 705 -6 0 -330 -319 -720
-710 l-710 -710 -252 252 -253 253 967 967 968 968 962 -962 963 -963 -252
-252z"/>
</g>
</svg>
