<?xml version="1.0" standalone="no"?>
<!DOCTYPE svg PUBLIC "-//W3C//DTD SVG 20010904//EN"
 "http://www.w3.org/TR/2001/REC-SVG-20010904/DTD/svg10.dtd">
<svg version="1.0" xmlns="http://www.w3.org/2000/svg"
 width="60.000000pt" height="60.000000pt" viewBox="0 0 60.000000 60.000000"
 preserveAspectRatio="xMidYMid meet">

<g transform="translate(0.000000,60.000000) scale(0.100000,-0.100000)"
fill="#000000" stroke="none">
<path d="M240 531 c-112 -36 -174 -119 -174 -231 0 -138 96 -234 234 -234 138
0 234 96 234 234 0 95 -44 169 -128 212 -43 22 -128 32 -166 19z m48 -43 c8
-8 15 -8 26 1 21 17 77 -2 121 -41 43 -37 73 -111 55 -133 -10 -12 -10 -18 0
-30 18 -22 -12 -96 -55 -133 -44 -39 -100 -58 -120 -42 -12 10 -18 10 -30 0
-20 -16 -76 3 -120 42 -43 37 -73 111 -55 133 10 12 10 18 0 30 -28 34 34 134
105 166 47 22 57 23 73 7z"/>
<path d="M230 438 c-48 -25 -90 -89 -90 -138 0 -49 42 -113 90 -137 56 -29 84
-29 140 0 48 24 90 88 90 137 0 49 -42 113 -90 138 -24 12 -56 22 -70 22 -14
0 -46 -10 -70 -22z m88 -75 c2 -40 9 -56 32 -78 33 -32 38 -53 14 -62 -9 -3
-28 7 -50 28 -31 30 -34 38 -34 94 0 34 3 65 7 69 16 16 28 -4 31 -51z"/>
</g>
</svg>
