<?xml version="1.0" standalone="no"?>
<!DOCTYPE svg PUBLIC "-//W3C//DTD SVG 20010904//EN"
 "http://www.w3.org/TR/2001/REC-SVG-20010904/DTD/svg10.dtd">
<svg version="1.0" xmlns="http://www.w3.org/2000/svg"
 width="60.000000pt" height="60.000000pt" viewBox="0 0 60.000000 60.000000"
 preserveAspectRatio="xMidYMid meet">

<g transform="translate(0.000000,60.000000) scale(0.100000,-0.100000)"
fill="#000000" stroke="none">
<path d="M288 536 c-11 -10 -34 -16 -67 -16 -28 0 -59 -4 -69 -9 -9 -5 -25
-12 -35 -15 -10 -3 -17 -12 -14 -19 3 -9 51 -12 197 -12 146 0 194 3 197 12 3
7 -4 16 -14 19 -10 3 -26 10 -35 15 -10 5 -41 9 -69 9 -36 0 -55 5 -64 16 -10
15 -13 15 -27 0z"/>
<path d="M125 388 c3 -18 12 -89 20 -157 8 -68 20 -130 26 -137 16 -20 242
-20 258 0 6 7 18 69 26 137 8 68 17 139 19 157 l5 32 -180 0 -180 0 6 -32z"/>
</g>
</svg>
