<?xml version="1.0" standalone="no"?>
<!DOCTYPE svg PUBLIC "-//W3C//DTD SVG 20010904//EN"
 "http://www.w3.org/TR/2001/REC-SVG-20010904/DTD/svg10.dtd">
<svg version="1.0" xmlns="http://www.w3.org/2000/svg"
 width="48.000000pt" height="48.000000pt" viewBox="0 0 48.000000 48.000000"
 preserveAspectRatio="xMidYMid meet">

<g transform="translate(0.000000,48.000000) scale(0.100000,-0.100000)"
fill="#000000" stroke="none">
<path d="M80 240 l0 -200 81 0 c73 0 80 2 74 18 -4 9 -9 35 -12 57 -8 73 61
145 140 145 35 0 37 2 37 32 0 26 -11 44 -57 90 l-57 58 -103 0 -103 0 0 -200z
m240 115 l54 -55 -57 0 -57 0 0 55 c0 30 1 55 3 55 1 0 27 -25 57 -55z"/>
<path d="M311 206 c-100 -56 -40 -203 75 -182 26 5 41 3 54 -9 14 -13 19 -13
29 -2 9 11 8 17 -4 27 -12 10 -15 23 -10 52 16 92 -66 157 -144 114z m89 -46
c11 -11 20 -29 20 -40 0 -26 -34 -60 -60 -60 -26 0 -60 34 -60 60 0 26 34 60
60 60 11 0 29 -9 40 -20z"/>
</g>
</svg>
