<?xml version="1.0" standalone="no"?>
<!DOCTYPE svg PUBLIC "-//W3C//DTD SVG 20010904//EN"
 "http://www.w3.org/TR/2001/REC-SVG-20010904/DTD/svg10.dtd">
<svg version="1.0" xmlns="http://www.w3.org/2000/svg"
 width="48.000000pt" height="48.000000pt" viewBox="0 0 48.000000 48.000000"
 preserveAspectRatio="xMidYMid meet">

<g transform="translate(0.000000,48.000000) scale(0.100000,-0.100000)"
fill="#000000" stroke="none">
<path d="M41 385 c-5 -5 -5 -73 -2 -150 l6 -140 75 -7 c42 -5 130 -5 195 0
l120 7 8 143 c5 79 6 146 3 150 -11 11 -397 8 -405 -3z m323 -14 c4 -5 -25
-32 -63 -59 l-69 -51 -66 47 c-36 25 -66 52 -66 59 0 10 29 13 129 13 72 0
132 -4 135 -9z m-213 -82 c35 -29 70 -56 76 -62 9 -6 24 -1 50 19 21 16 56 41
79 56 l42 26 6 -36 c3 -21 6 -72 6 -114 l0 -78 -170 0 -170 0 0 120 c0 66 4
120 8 120 4 0 37 -23 73 -51z"/>
</g>
</svg>
