<?xml version="1.0" standalone="no"?>
<!DOCTYPE svg PUBLIC "-//W3C//DTD SVG 20010904//EN"
 "http://www.w3.org/TR/2001/REC-SVG-20010904/DTD/svg10.dtd">
<svg version="1.0" xmlns="http://www.w3.org/2000/svg"
 width="96.000000pt" height="96.000000pt" viewBox="0 0 96.000000 96.000000"
 preserveAspectRatio="xMidYMid meet">

<g transform="translate(0.000000,96.000000) scale(0.100000,-0.100000)"
fill="#000000" stroke="none">
<path d="M143 786 c-65 -36 -63 -25 -63 -302 0 -268 4 -293 47 -313 33 -15
673 -15 706 0 43 20 47 45 47 309 0 264 -4 289 -47 309 -36 16 -660 13 -690
-3z m499 -167 l-162 -101 -162 101 -162 101 324 0 324 0 -162 -101z m-316 -81
c78 -48 147 -88 154 -88 10 0 195 111 298 178 l22 14 0 -201 0 -201 -320 0
-320 0 0 201 c0 157 3 199 13 193 6 -4 76 -47 153 -96z"/>
</g>
</svg>
