<?xml version="1.0" standalone="no"?>
<!DOCTYPE svg PUBLIC "-//W3C//DTD SVG 20010904//EN"
 "http://www.w3.org/TR/2001/REC-SVG-20010904/DTD/svg10.dtd">
<svg version="1.0" xmlns="http://www.w3.org/2000/svg"
 width="48.000000pt" height="48.000000pt" viewBox="0 0 48.000000 48.000000"
 preserveAspectRatio="xMidYMid meet">

<g transform="translate(0.000000,48.000000) scale(0.100000,-0.100000)"
fill="#000000" stroke="none">
<path d="M327 424 c-11 -11 3 -24 25 -24 21 0 21 0 -1 -24 -18 -19 -28 -23
-45 -16 -85 32 -167 -88 -102 -149 28 -26 48 -10 22 18 -22 24 -20 67 4 91 41
41 99 11 104 -53 4 -49 13 -56 27 -21 7 20 8 37 1 56 -8 22 -6 30 14 49 l24
22 0 -26 c0 -17 5 -27 15 -27 12 0 15 13 15 55 l0 55 -48 0 c-27 0 -52 -3 -55
-6z"/>
<path d="M240 276 c0 -7 7 -19 15 -26 21 -18 19 -72 -5 -98 -17 -18 -24 -20
-50 -10 -39 13 -60 44 -60 88 -1 30 -2 32 -11 16 -6 -10 -9 -38 -6 -62 5 -52
-12 -75 -43 -56 -11 7 -21 8 -25 2 -3 -5 0 -12 6 -15 6 -4 8 -17 5 -29 -5 -19
-1 -22 29 -22 24 0 31 3 25 11 -19 23 14 49 59 47 22 -2 51 2 63 9 57 29 76
96 38 137 -24 25 -40 28 -40 8z"/>
</g>
</svg>
