<?xml version="1.0" standalone="no"?>
<!DOCTYPE svg PUBLIC "-//W3C//DTD SVG 20010904//EN"
 "http://www.w3.org/TR/2001/REC-SVG-20010904/DTD/svg10.dtd">
<svg version="1.0" xmlns="http://www.w3.org/2000/svg"
 width="60.000000pt" height="60.000000pt" viewBox="0 0 60.000000 60.000000"
 preserveAspectRatio="xMidYMid meet">

<g transform="translate(0.000000,60.000000) scale(0.100000,-0.100000)"
fill="#000000" stroke="none">
<path d="M485 550 c-4 -6 -58 -36 -121 -67 -161 -78 -210 -141 -203 -260 3
-41 0 -47 -41 -82 -26 -23 -41 -42 -36 -49 11 -18 19 -15 61 18 34 27 45 30
112 30 77 0 128 15 152 44 24 29 -1 38 -44 16 -23 -12 -59 -20 -88 -20 l-49 0
69 78 c39 42 93 106 122 142 36 45 59 65 74 65 19 0 22 5 22 44 0 43 -16 64
-30 41z"/>
<path d="M466 389 c-20 -21 -25 -34 -18 -41 24 -24 81 24 68 58 -8 20 -17 17
-50 -17z"/>
<path d="M460 305 c-6 -8 -30 -18 -53 -22 -60 -12 -58 -39 2 -36 47 2 100 40
87 62 -10 15 -21 14 -36 -4z"/>
</g>
</svg>
