<?xml version="1.0" standalone="no"?>
<!DOCTYPE svg PUBLIC "-//W3C//DTD SVG 20010904//EN"
 "http://www.w3.org/TR/2001/REC-SVG-20010904/DTD/svg10.dtd">
<svg version="1.0" xmlns="http://www.w3.org/2000/svg"
 width="60.000000pt" height="60.000000pt" viewBox="0 0 60.000000 60.000000"
 preserveAspectRatio="xMidYMid meet">

<g transform="translate(0.000000,60.000000) scale(0.100000,-0.100000)"
fill="#000000" stroke="none">
<path d="M231 545 c-63 -20 -118 -78 -138 -144 -29 -102 13 -196 122 -271 27
-19 48 -43 59 -70 9 -22 20 -40 26 -40 6 0 17 18 26 40 9 22 30 50 48 62 119
82 163 174 132 280 -19 68 -74 123 -141 144 -58 17 -77 17 -134 -1z m111 -162
c22 -20 23 -61 1 -85 -34 -38 -103 -11 -103 40 0 54 62 81 102 45z"/>
</g>
</svg>
