<?xml version="1.0" encoding="utf-8"?>
<!-- Generator: Adobe Illustrator 22.1.0, SVG Export Plug-In . SVG Version: 6.00 Build 0)  -->
<svg version="1.1" id="Layer_1" xmlns="http://www.w3.org/2000/svg" xmlns:xlink="http://www.w3.org/1999/xlink" x="0px" y="0px"
	 viewBox="0 0 640 512" style="enable-background:new 0 0 640 512;" xml:space="preserve">
<style type="text/css">
	.st0{fill:#8CC1D4;}
</style>
<path class="st0" d="M560.7,218H510v-50.7c0-7-5.7-12.7-12.7-12.7H472c-7,0-12.7,5.7-12.7,12.7V218h-50.7c-7,0-12.7,5.7-12.7,12.7
	V256c0,7,5.7,12.7,12.7,12.7h50.7v50.7c0,7,5.7,12.7,12.7,12.7h25.3c7,0,12.7-5.7,12.7-12.7v-50.7h50.7c7,0,12.7-5.7,12.7-12.7
	v-25.3C573.4,223.7,567.7,218,560.7,218z M244,256c56,0,101.4-45.4,101.4-101.4S300,53.3,244,53.3S142.6,98.7,142.6,154.6
	S188,256,244,256z M314.9,281.3h-13.2c-17.6,8.1-37.1,12.7-57.7,12.7s-40.1-4.6-57.7-12.7H173c-58.8,0-106.4,47.7-106.4,106.4v32.9
	c0,21,17,38,38,38h278.7c21,0,38-17,38-38v-32.9C421.4,329,373.7,281.3,314.9,281.3z"/>
</svg>
