<?xml version="1.0" standalone="no"?>
<!DOCTYPE svg PUBLIC "-//W3C//DTD SVG 20010904//EN"
 "http://www.w3.org/TR/2001/REC-SVG-20010904/DTD/svg10.dtd">
<svg version="1.0" xmlns="http://www.w3.org/2000/svg"
 width="60.000000pt" height="60.000000pt" viewBox="0 0 60.000000 60.000000"
 preserveAspectRatio="xMidYMid meet">

<g transform="translate(0.000000,60.000000) scale(0.100000,-0.100000)"
fill="#000000" stroke="none">
<path d="M150 553 c-47 -8 -50 -21 -50 -259 0 -189 2 -225 16 -238 13 -13 43
-16 177 -16 l161 0 -49 50 c-45 46 -53 50 -97 50 -41 0 -48 3 -48 20 0 17 7
20 40 20 33 0 40 3 40 20 0 17 -7 20 -40 20 -34 0 -40 3 -40 21 0 20 4 21 94
17 84 -3 97 -6 120 -27 l26 -24 0 104 0 104 -72 72 -72 73 -91 -1 c-49 -1
-101 -4 -115 -6z m264 -151 c-69 -5 -74 -1 -74 65 l0 57 60 -59 61 -60 -47 -3z
m-196 -79 c-5 -26 -38 -29 -38 -4 0 15 6 21 21 21 14 0 19 -5 17 -17z m197 -3
c0 -12 -17 -16 -77 -18 -73 -3 -78 -2 -78 18 0 20 5 21 78 18 60 -2 77 -6 77
-18z m-197 -77 c-2 -10 -10 -18 -18 -18 -8 0 -16 8 -18 18 -2 12 3 17 18 17
15 0 20 -5 18 -17z m0 -80 c-2 -10 -10 -18 -18 -18 -8 0 -16 8 -18 18 -2 12 3
17 18 17 15 0 20 -5 18 -17z"/>
<path d="M386 193 c3 -16 31 -53 60 -83 l54 -55 22 23 23 22 -55 54 c-30 29
-67 57 -83 60 -26 6 -27 5 -21 -21z"/>
<path d="M555 40 c-14 -16 -16 -23 -6 -33 15 -15 46 3 46 28 0 26 -19 29 -40
5z"/>
</g>
</svg>
