<?xml version="1.0" standalone="no"?>
<!DOCTYPE svg PUBLIC "-//W3C//DTD SVG 20010904//EN"
 "http://www.w3.org/TR/2001/REC-SVG-20010904/DTD/svg10.dtd">
<svg version="1.0" xmlns="http://www.w3.org/2000/svg"
 width="96.000000pt" height="96.000000pt" viewBox="0 0 96.000000 96.000000"
 preserveAspectRatio="xMidYMid meet">

<g transform="translate(0.000000,96.000000) scale(0.100000,-0.100000)"
fill="#000000" stroke="none">
<path d="M240 880 c0 -36 -3 -40 -25 -40 -36 0 -71 -19 -84 -47 -7 -16 -11
-122 -11 -313 0 -306 3 -329 47 -349 33 -15 593 -15 626 0 14 6 30 22 36 36
15 33 15 593 0 626 -13 28 -48 47 -84 47 -22 0 -25 4 -25 40 l0 40 -40 0 -40
0 0 -40 0 -40 -160 0 -160 0 0 40 0 40 -40 0 -40 0 0 -40z m520 -160 l0 -40
-280 0 -280 0 0 40 0 40 280 0 280 0 0 -40z m0 -320 l0 -200 -280 0 -280 0 0
200 0 200 280 0 280 0 0 -200z"/>
</g>
</svg>
