<?xml version="1.0" standalone="no"?>
<!DOCTYPE svg PUBLIC "-//W3C//DTD SVG 20010904//EN"
 "http://www.w3.org/TR/2001/REC-SVG-20010904/DTD/svg10.dtd">
<svg version="1.0" xmlns="http://www.w3.org/2000/svg"
 width="60.000000pt" height="60.000000pt" viewBox="0 0 60.000000 60.000000"
 preserveAspectRatio="xMidYMid meet">

<g transform="translate(0.000000,60.000000) scale(0.100000,-0.100000)"
fill="#000000" stroke="none">
<path d="M476 541 c-11 -12 -35 -20 -72 -23 -55 -5 -56 -5 -165 -114 -71 -70
-117 -109 -131 -109 -12 0 -23 -5 -25 -10 -5 -16 153 -169 167 -160 6 4 9 14
5 23 -4 10 30 51 110 132 115 117 115 117 115 165 0 36 6 55 21 71 12 12 18
27 14 33 -9 16 -20 14 -39 -8z m-36 -124 c0 -7 -49 -62 -110 -122 l-110 -109
-35 34 c-19 19 -35 38 -35 42 0 18 32 20 51 2 19 -17 20 -17 42 4 12 12 22 32
22 44 0 17 6 23 22 23 28 1 37 10 38 38 0 15 6 22 21 22 11 1 33 11 48 23 28
22 46 21 46 -1z"/>
<path d="M536 456 c-17 -36 -14 -61 10 -70 19 -7 41 2 48 21 6 16 -21 83 -34
83 -4 0 -15 -15 -24 -34z"/>
<path d="M80 175 c-10 -12 -16 -13 -27 -4 -11 9 -17 9 -26 0 -9 -9 1 -24 41
-63 41 -41 54 -50 64 -40 9 9 9 15 0 24 -9 9 -8 16 5 30 15 17 15 20 -7 43
-27 29 -33 30 -50 10z"/>
</g>
</svg>
